<?xml version="1.0" encoding="UTF-8"?>
<svg xmlns="http://www.w3.org/2000/svg" xmlns:xlink="http://www.w3.org/1999/xlink" width="256px" height="256px" viewBox="0 0 256 256" version="1.1">
<g id="surface1">
<path style=" stroke:none;fill-rule:nonzero;fill:rgb(91.764706%,70.196078%,3.137255%);fill-opacity:1;" d="M 213.332031 153.601562 C 218.046875 153.601562 221.867188 157.421875 221.867188 162.132812 C 221.867188 166.847656 218.046875 170.667969 213.332031 170.667969 C 208.621094 170.667969 204.800781 166.847656 204.800781 162.132812 C 204.800781 157.421875 208.621094 153.601562 213.332031 153.601562 M 93.867188 153.601562 L 145.066406 153.601562 C 149.78125 153.601562 153.601562 157.421875 153.601562 162.132812 C 153.601562 166.847656 149.78125 170.667969 145.066406 170.667969 L 93.867188 170.667969 C 89.152344 170.667969 85.332031 166.847656 85.332031 162.132812 C 85.332031 157.421875 89.152344 153.601562 93.867188 153.601562 M 76.800781 102.398438 C 81.511719 102.398438 85.332031 106.21875 85.332031 110.933594 L 85.332031 128 C 85.332031 132.710938 81.511719 136.535156 76.800781 136.535156 C 72.085938 136.535156 68.265625 132.710938 68.265625 128 L 68.265625 110.933594 C 68.265625 106.21875 72.085938 102.398438 76.800781 102.398438 M 34.144531 110.496094 C 34.320312 100.484375 40.316406 91.496094 49.492188 87.488281 C 58.667969 83.480469 69.335938 85.1875 76.800781 91.863281 C 84.324219 85.132812 95.097656 83.453125 104.3125 87.570312 C 113.527344 91.691406 119.464844 100.839844 119.464844 110.933594 L 119.464844 128 C 119.464844 132.710938 115.644531 136.535156 110.933594 136.535156 C 106.21875 136.535156 102.398438 132.710938 102.398438 128 L 102.398438 110.933594 C 102.398438 106.21875 98.578125 102.398438 93.867188 102.398438 C 89.152344 102.398438 85.332031 106.21875 85.332031 110.933594 L 85.332031 128 C 85.332031 132.710938 81.511719 136.535156 76.800781 136.535156 C 72.085938 136.535156 68.265625 132.710938 68.265625 128 L 68.265625 110.933594 C 68.265625 106.21875 64.445312 102.398438 59.734375 102.398438 C 55.019531 102.398438 51.199219 106.21875 51.199219 110.933594 L 51.199219 128 C 51.199219 132.710938 47.378906 136.535156 42.667969 136.535156 C 37.953125 136.535156 34.132812 132.710938 34.132812 128 L 34.132812 110.933594 Z M 187.734375 136.535156 L 187.734375 162.132812 C 187.734375 166.847656 183.914062 170.667969 179.199219 170.667969 C 174.488281 170.667969 170.667969 166.847656 170.667969 162.132812 L 170.667969 136.535156 L 146.070312 136.535156 C 140.8125 136.535156 136.535156 132.714844 136.535156 128 C 136.535156 123.285156 140.8125 119.464844 146.070312 119.464844 L 212.332031 119.464844 C 217.589844 119.464844 221.867188 123.285156 221.867188 128 C 221.867188 132.714844 217.589844 136.535156 212.332031 136.535156 Z M 179.199219 85.332031 L 213.332031 85.332031 C 218.046875 85.332031 221.867188 89.152344 221.867188 93.867188 C 221.867188 98.578125 218.046875 102.398438 213.332031 102.398438 L 179.199219 102.398438 C 174.488281 102.398438 170.667969 98.578125 170.667969 93.867188 C 170.667969 89.152344 174.488281 85.332031 179.199219 85.332031 M 42.667969 153.601562 L 59.734375 153.601562 C 64.445312 153.601562 68.265625 157.421875 68.265625 162.132812 C 68.265625 166.847656 64.445312 170.667969 59.734375 170.667969 L 42.667969 170.667969 C 37.953125 170.667969 34.132812 166.847656 34.132812 162.132812 C 34.132812 157.421875 37.953125 153.601562 42.667969 153.601562 M 140.800781 85.332031 L 145.066406 85.332031 C 149.78125 85.332031 153.601562 89.152344 153.601562 93.867188 C 153.601562 98.578125 149.78125 102.398438 145.066406 102.398438 L 140.800781 102.398438 C 136.085938 102.398438 132.265625 98.578125 132.265625 93.867188 C 132.265625 89.152344 136.085938 85.332031 140.800781 85.332031 M 17.066406 153.601562 L 0 153.601562 L 0 93.867188 C 0 70.316406 19.113281 51.199219 42.667969 51.199219 L 213.332031 51.199219 C 236.886719 51.199219 256 70.316406 256 93.867188 L 256 162.132812 C 256 185.683594 236.886719 204.800781 213.332031 204.800781 L 42.667969 204.800781 C 19.113281 204.800781 0 185.683594 0 162.132812 L 0 145.066406 L 17.066406 145.066406 L 17.066406 162.132812 C 17.066406 176.273438 28.527344 187.734375 42.667969 187.734375 L 213.332031 187.734375 C 227.472656 187.734375 238.933594 176.273438 238.933594 162.132812 L 238.933594 93.867188 C 238.933594 79.726562 227.472656 68.265625 213.332031 68.265625 L 42.667969 68.265625 C 28.527344 68.265625 17.066406 79.726562 17.066406 93.867188 Z M 17.066406 153.601562 "/>
</g>
</svg>
